<?xml version="1.0" encoding="UTF-8"?>
<svg id="Capa_1" data-name="Capa 1" xmlns="http://www.w3.org/2000/svg" viewBox="0 0 370 370">
  <defs>
    <style>
      .cls-1 {
        fill: #fff;
      }

      .cls-2 {
        fill: #27336e;
      }

      .cls-3 {
        fill: #27357f;
      }
    </style>
  </defs>
  <rect class="cls-3" x="0" y="0" width="370" height="370"/>
  <g>
    <polygon class="cls-2" points="288.75 183.33 120.67 77.11 112.72 275.78 288.75 183.33"/>
    <polygon class="cls-2" points="278.97 132.16 81.25 111.16 161.92 292.89 278.97 132.16"/>
  </g>
  <g>
    <path class="cls-1" d="m108.87,202.3c.99,5.9,1.94,12.29,3.17,18.63,1.21,6.23,1.43,12.7,3.64,18.66,3.2-.41,25.49-18.72,32.99-26.77-5.38-12.85-8.96-26.32-10.81-39.15-9.38,9.26-19.09,18.84-29,28.62Z"/>
    <path class="cls-1" d="m185.71,132.39c5.26.03,9.7-4.41,9.72-9.74.03-5.4-4.23-9.7-9.63-9.73-5.35-.03-9.76,4.32-9.78,9.64-.02,5.25,4.46,9.8,9.69,9.83Z"/>
    <path class="cls-1" d="m223.89,146.11c-.53-6.35-1.59-12.74-3.22-19.16-6.14-24.31-18.94-45.06-35.15-63.98-42.12,46.36-48.4,95.13-30.67,139.92h60.57c6.98-18.69,10.11-37.6,8.47-56.78Zm-56.92-23.75c.05-10.28,8.51-18.59,18.92-18.57,10.33.02,18.61,8.4,18.6,18.84-.01,10.38-8.35,18.78-18.68,18.82-10.4.04-18.89-8.57-18.84-19.09Z"/>
    <path class="cls-1" d="m232.18,172.51c-1.71,13.19-5.2,26.7-10.66,39.8,10.46,8.98,20.81,17.85,31.62,27.13.97-1.64,1.89-2.55,2.07-3.59,2.06-11.85,4.01-23.72,5.92-35.2-9.92-9.64-19.58-19.03-28.95-28.14Z"/>
    <path class="cls-1" d="m162.75,240.34c-.14,0-.29,0-.44.01-2.79.19-4.25,1.98-4.28,5.43-.04,4.6-.01,9.19-.01,13.79,0,4.85-.04,9.7.02,14.54.03,3.33,1.66,5.16,4.48,5.25h.19c2.66,0,4.7-1.81,4.75-4.9.14-9.7.14-19.39.01-29.09-.04-3.26-1.95-5.03-4.72-5.03Z"/>
    <path class="cls-1" d="m206.75,239.72h-.17c-2.77.08-4.43,1.95-4.48,5.28-.06,4.84-.01,9.69-.01,14.54,0,2.7-.02,5.4-.02,8.1,0,2.02.01,4.05.05,6.07.05,3.11,1.67,4.81,4.37,4.92h.26c2.74,0,4.57-1.7,4.61-4.83.11-9.69.11-19.39.02-29.08-.04-3.13-1.97-5-4.63-5Z"/>
    <path class="cls-1" d="m184.5,240.26c-.16,0-.32.01-.49.02-2.39.18-4.02,1.84-4.25,4.38-.08.87-.03,1.74-.03,2.62v52.76c0,.87-.06,1.75.03,2.62.27,2.44,2.03,4.19,4.34,4.36.12,0,.25.01.37.01,2.02,0,3.71-1.23,4.36-3.42.34-1.17.42-2.45.42-3.67.03-17.59.03-35.18,0-52.76,0-1.12-.03-2.27-.31-3.33-.6-2.36-2.21-3.59-4.45-3.59Z"/>
    <path class="cls-1" d="m161.74,219.69h46.62c1.19-2.78,2.17-5.07,3.17-7.41h-53.14c1.27,2.81,2.39,5.27,3.35,7.41Z"/>
  </g>
</svg>